<svg xmlns="http://www.w3.org/2000/svg" viewBox="0 0 1919 556.385">
  <defs>
    <style>
      .cls-1 {
        fill: rgba(78,80,81,0.1);
      }
    </style>
  </defs>
  <path id="Intersection_1" data-name="Intersection 1" class="cls-1" d="M24.763-1688.5c-.191-1.089-.684-3.932-1.412-8.32v-452.715q.738-1.41,1.5-2.772c11.09-19.814,50.871,16.159,90.076,52.134,36.032,33.062,71.577,66.125,83.917,55.879,94.6-78.553,214.049,30.22,333.3,33.947,246.886,7.715,358.442,149.675,494.229,140.416s487.6-331.754,595.613-348.727c46.219-7.263,68.705,11.467,88.736,30.2,26.781,25.042,49.175,50.083,118.031,13.008,93.184-50.176,110.522-65.2,113.6-69.432V-1688.5Z" transform="translate(-23.351 2244.885)"/>
</svg>
